<svg width="18" height="18" viewBox="0 0 18 18" fill="none" xmlns="http://www.w3.org/2000/svg">
<g id="fa / users-cog 2">
<path id="Vector" d="M2.7 8.10107C3.69281 8.10107 4.5 7.29507 4.5 6.30371C4.5 5.31235 3.69281 4.50635 2.7 4.50635C1.70719 4.50635 0.9 5.31235 0.9 6.30371C0.9 7.29507 1.70719 8.10107 2.7 8.10107ZM15.3 8.10107C16.2928 8.10107 17.1 7.29507 17.1 6.30371C17.1 5.31235 16.2928 4.50635 15.3 4.50635C14.3072 4.50635 13.5 5.31235 13.5 6.30371C13.5 7.29507 14.3072 8.10107 15.3 8.10107ZM16.2 8.99976H14.4C13.905 8.99976 13.4578 9.19915 13.1316 9.52211C14.265 10.1428 15.0694 11.2633 15.2437 12.5945H17.1C17.5978 12.5945 18 12.1929 18 11.6958V10.7971C18 9.80576 17.1928 8.99976 16.2 8.99976ZM9 8.99976C10.7409 8.99976 12.15 7.59276 12.15 5.85437C12.15 4.11598 10.7409 2.70898 9 2.70898C7.25906 2.70898 5.85 4.11598 5.85 5.85437C5.85 7.59276 7.25906 8.99976 9 8.99976ZM11.16 9.89844H10.9266C10.3416 10.1793 9.69187 10.3478 9 10.3478C8.30812 10.3478 7.66125 10.1793 7.07344 9.89844H6.84C5.05125 9.89844 3.6 11.3476 3.6 13.1337V13.9425C3.6 14.6867 4.20469 15.2905 4.95 15.2905H13.05C13.7953 15.2905 14.4 14.6867 14.4 13.9425V13.1337C14.4 11.3476 12.9487 9.89844 11.16 9.89844ZM4.86844 9.52211C4.54219 9.19915 4.095 8.99976 3.6 8.99976H1.8C0.807187 8.99976 0 9.80576 0 10.7971V11.6958C0 12.1929 0.402187 12.5945 0.9 12.5945H2.75344C2.93062 11.2633 3.735 10.1428 4.86844 9.52211Z" fill="#212121"/>
</g>
</svg>
